# xmcd
#
# Track frame offsets: 
#        182
#        10507
#        36422
#        53522
#        68412
#        87067
#        104925
#        118815
#        130095
#        142815
#        157162
#        177540
#        205105
#
# Disc length: 2869 seconds
#
# Revision: 1
# Processed by: cddbd v1.5.2PL0 Copyright (c) Steve Scherf et al.
# Submitted via: ExactAudioCopy v0.95b4
#
DISCID=ae0b330d
DTITLE=Petits Loups du Jazz - Les p'tits Loups du jazz
DYEAR=1992
DGENRE=Jazz
TTITLE0=Les p'tits loups du jazz (intro)
TTITLE1=Now's the time (le casse-tête)
TTITLE2=Gentle rain (l'automne)
TTITLE3=But not for me (ce n'est pas pour moi)
TTITLE4=A Child is born (né de la nuit)
TTITLE5=L'otorhinocéros
TTITLE6=It don't mean a thing (swing song)
TTITLE7=Do you know what it means (au café d'henri)
TTITLE8=C'est comme ça
TTITLE9=Les dents qui swiguent
TTITLE10=Bernie's tune (la chanson de bunny)
TTITLE11=Blue monk (monk canard)
TTITLE12=Les petits loups du jazz (fin)
EXTD=YEAR: 1992
EXTT0=
EXTT1=
EXTT2=
EXTT3=
EXTT4=
EXTT5=
EXTT6=
EXTT7=
EXTT8=
EXTT9=
EXTT10=
EXTT11=
EXTT12=
PLAYORDER=
